<?xml version='1.0' encoding='UTF-8' standalone='no'?>
<svg width="675pt" xmlns="http://www.w3.org/2000/svg" height="465pt" xmlns:xlink="http://www.w3.org/1999/xlink" viewBox="0 0 675 465">
 <title>Figure 1</title>
 <desc>
Creator: GL2PS 1.4.2, (C) 1999-2020 C. Geuzaine
For: Octave
CreationDate: Fri Sep 11 12:03:34 2026
</desc>
 <defs/>
 <polygon points="0,0 675,0 675,465 0,465" fill="#ffffff"/>
 <g>
  <polygon points="0,465 675,465 675,0 0,0" fill="#ffffff" shape-rendering="crispEdges"/>
  <clipPath id="cp00675465">
   <polygon points="0,465 675,465 675,0 0,0"/>
  </clipPath>
  <g clip-path="url(#cp00675465)">
   <g font-family="FreeSans" font-style="normal" font-weight="bold" font-size="13" transform="translate(255.087,24.9024) rotate(-0,94.5,0)" xml:space="preserve">
    <text x="0 9 " fill="rgb(0,0,0)" y="-3">Eu</text>
    <text x="17 22 " font-size="9.1" fill="rgb(0,0,0)" y="-9">3+</text>
    <text x="27 31 38 " fill="rgb(0,0,0)" y="-3"> 4f</text>
    <text x="42 " font-size="9.1" fill="rgb(0,0,0)" y="-9">6</text>
    <text x="47 51 59 63 71 79 83 90 98 102 110 114 118 122 126 130 134 142 150 " fill="rgb(0,0,0)" y="-3"> high-spin filling </text>
    <text x="154 " fill="rgb(0,0,0)" y="-3">→</text>
    <text x="167 " fill="rgb(0,0,0)" y="-3"/>
    <text x="171 " font-size="9.1" fill="rgb(0,0,0)" y="-9">7</text>
    <text x="176 " fill="rgb(0,0,0)" y="-3">F</text>
    <text x="184 " font-size="9.1" fill="rgb(0,0,0)" y="-1">0</text>
   </g>
   <g font-family="FreeSans" font-style="normal" font-weight="bold" font-size="12" transform="translate(192.526,63.1439) rotate(-0,-0,-7.5)" xml:space="preserve">
    <text x="0 8 " fill="rgb(0,0,0)" y="-3">Eu</text>
    <text x="15 20 " font-size="8.4" fill="rgb(0,0,0)" y="-8">3+</text>
    <text x="25 28 31 35 43 50 54 57 64 " fill="rgb(0,0,0)" y="-3">  [Xe] 4f</text>
    <text x="68 " font-size="8.4" fill="rgb(0,0,0)" y="-8">6</text>
    <text x="73 76 79 82 86 93 100 104 107 111 118 125 128 135 142 149 153 158 165 168 171 179 186 189 196 " fill="rgb(0,0,0)" y="-3">   (not the neutral Eu 4f</text>
    <text x="200 " font-size="8.4" fill="rgb(0,0,0)" y="-8">7</text>
    <text x="205 208 215 " fill="rgb(0,0,0)" y="-3"> 6s</text>
    <text x="222 " font-size="8.4" fill="rgb(0,0,0)" y="-8">2</text>
    <text x="227 230 237 241 248 259 " fill="rgb(0,0,0)" y="-3"> atom)</text>
   </g>
   <g font-family="FreeSans" font-style="normal" font-weight="bold" font-size="12" transform="translate(171.056,137.684) rotate(-0,11,-5)" xml:space="preserve">
    <text x="0 7 " fill="rgb(0,0,0)" y="-0">4f</text>
   </g>
   <polygon points="230.221,159.351 230.221,106.016 192.526,106.016 192.526,159.351" fill="#ffffff" shape-rendering="crispEdges"/>
   <polyline points="230.221,106.016 192.526,106.016 192.526,159.351 230.221,159.351 230.221,106.016" stroke-width="1.4" stroke-linecap="butt" fill="none" stroke="#262626" stroke-linejoin="miter"/>
   <g font-family="FreeSans" font-style="normal" font-weight="normal" font-size="18" transform="translate(206.374,140.751) rotate(-0,5,-7)" xml:space="preserve">
    <text x="0 " fill="rgb(25,63,140)" y="-0">↑</text>
   </g>
   <polygon points="275.245,159.351 275.245,106.016 237.55,106.016 237.55,159.351" fill="#ffffff" shape-rendering="crispEdges"/>
   <polyline points="275.245,106.016 237.55,106.016 237.55,159.351 275.245,159.351 275.245,106.016" stroke-width="1.4" stroke-linecap="butt" fill="none" stroke="#262626" stroke-linejoin="miter"/>
   <g font-family="FreeSans" font-style="normal" font-weight="normal" font-size="18" transform="translate(251.398,140.751) rotate(-0,5,-7)" xml:space="preserve">
    <text x="0 " fill="rgb(25,63,140)" y="-0">↑</text>
   </g>
   <polygon points="320.269,159.351 320.269,106.016 282.575,106.016 282.575,159.351" fill="#ffffff" shape-rendering="crispEdges"/>
   <polyline points="320.269,106.016 282.575,106.016 282.575,159.351 320.269,159.351 320.269,106.016" stroke-width="1.4" stroke-linecap="butt" fill="none" stroke="#262626" stroke-linejoin="miter"/>
   <g font-family="FreeSans" font-style="normal" font-weight="normal" font-size="18" transform="translate(296.422,140.751) rotate(-0,5,-7)" xml:space="preserve">
    <text x="0 " fill="rgb(25,63,140)" y="-0">↑</text>
   </g>
   <polygon points="365.293,159.351 365.293,106.016 327.599,106.016 327.599,159.351" fill="#ffffff" shape-rendering="crispEdges"/>
   <polyline points="365.293,106.016 327.599,106.016 327.599,159.351 365.293,159.351 365.293,106.016" stroke-width="1.4" stroke-linecap="butt" fill="none" stroke="#262626" stroke-linejoin="miter"/>
   <g font-family="FreeSans" font-style="normal" font-weight="normal" font-size="18" transform="translate(341.446,140.751) rotate(-0,5,-7)" xml:space="preserve">
    <text x="0 " fill="rgb(25,63,140)" y="-0">↑</text>
   </g>
   <polygon points="410.318,159.351 410.318,106.016 372.623,106.016 372.623,159.351" fill="#ffffff" shape-rendering="crispEdges"/>
   <polyline points="410.318,106.016 372.623,106.016 372.623,159.351 410.318,159.351 410.318,106.016" stroke-width="1.4" stroke-linecap="butt" fill="none" stroke="#262626" stroke-linejoin="miter"/>
   <g font-family="FreeSans" font-style="normal" font-weight="normal" font-size="18" transform="translate(386.47,140.751) rotate(-0,5,-7)" xml:space="preserve">
    <text x="0 " fill="rgb(25,63,140)" y="-0">↑</text>
   </g>
   <polygon points="455.342,159.351 455.342,106.016 417.647,106.016 417.647,159.351" fill="#ffffff" shape-rendering="crispEdges"/>
   <polyline points="455.342,106.016 417.647,106.016 417.647,159.351 455.342,159.351 455.342,106.016" stroke-width="1.4" stroke-linecap="butt" fill="none" stroke="#262626" stroke-linejoin="miter"/>
   <g font-family="FreeSans" font-style="normal" font-weight="normal" font-size="18" transform="translate(431.494,140.751) rotate(-0,5,-7)" xml:space="preserve">
    <text x="0 " fill="rgb(25,63,140)" y="-0">↑</text>
   </g>
   <polygon points="500.366,159.351 500.366,106.016 462.671,106.016 462.671,159.351" fill="#ffffff" shape-rendering="crispEdges"/>
   <polyline points="500.366,106.016 462.671,106.016 462.671,159.351 500.366,159.351 500.366,106.016" stroke-width="1.4" stroke-linecap="butt" fill="none" stroke="#262626" stroke-linejoin="miter"/>
   <g font-family="FreeSans" font-style="normal" font-weight="normal" font-size="11" transform="translate(192.526,225.482) rotate(-0,-0,-36.5)" xml:space="preserve">
    <text x="0 8 14 20 26 29 33 40 46 48 53 59 63 66 72 75 81 85 88 91 100 106 111 113 122 124 129 135 138 145 148 151 154 160 166 172 175 181 " fill="rgb(0,0,0)" y="-64">Hund (Beiser 7.6): maximize S, then L.</text>
    <text x="0 3 6 13 16 22 25 31 34 39 42 48 51 57 60 66 69 75 78 81 84 87 91 97 100 103 109 116 122 128 131 137 140 " fill="rgb(0,0,0)" y="-48">  S = 6 x 1/2 = 3    ->  2S+1 = 7</text>
    <text x="0 3 6 12 15 21 24 30 33 36 40 43 49 53 62 65 67 73 76 79 85 89 92 99 " fill="rgb(0,0,0)" y="-35">  L = 3  (term letter F)</text>
    <text x="0 3 6 12 15 21 24 26 31 34 36 42 47 52 55 58 64 70 76 79 85 91 93 96 99 102 104 106 108 114 120 123 127 133 136 139 145 148 154 157 160 166 169 173 176 183 186 189 195 198 " fill="rgb(0,0,0)" y="-19">  4f6 is less than half filled ->  J = |L - S| = 0</text>
    <text font-family="*, FreeSans" x="0 3 6 14 18 24 30 36 42 45 47 53 58 64 66 69 72 78 85 91 94 97 100 104 111 117 119 124 130 134 137 143 146 152 155 158 164 168 177 180 185 190 199 205 211 213 217 " fill="rgb(0,0,0)" y="-3">  Ground level: 7F0   (Beiser 7.8 term symbol).</text>
   </g>
   <g font-family="FreeSans" font-style="normal" font-weight="normal" font-size="10" transform="translate(192.526,356.062) rotate(-0,-0,-13)" xml:space="preserve">
    <text x="0 7 9 14 19 24 30 33 39 44 50 53 59 65 71 74 79 84 89 91 93 98 101 106 109 112 115 120 125 128 135 140 143 148 153 156 161 164 167 172 180 185 187 192 195 198 204 209 214 219 222 227 232 234 239 241 247 250 256 " fill="rgb(0,0,0)" y="-17">Closed 5s2 5p6 shells of the Xe core remain. They shield 4f</text>
    <text font-family="*, FreeSans" x="0 3 6 11 19 22 25 30 35 38 40 42 48 53 58 64 69 72 75 78 83 88 93 96 99 104 109 112 115 120 126 128 133 135 138 144 149 154 159 161 164 167 174 179 182 187 192 195 198 203 208 213 215 221 226 229 234 240 246 252 257 260 265 270 276 279 281 287 292 " fill="rgb(0,0,0)" y="-2">from the ligands - see the radial panel. Do not assign sp3dn hybrids.</text>
   </g>
  </g>
 </g>
</svg>
