<?xml version='1.0' encoding='UTF-8' standalone='no'?>
<svg xmlns:xlink="http://www.w3.org/1999/xlink" width="675pt" xmlns="http://www.w3.org/2000/svg" viewBox="0 0 675 525" height="525pt">
 <title>Figure 1: si_filling</title>
 <desc>
Creator: GL2PS 1.4.2, (C) 1999-2020 C. Geuzaine
For: Octave
CreationDate: Fri Sep 11 12:03:31 2026
</desc>
 <defs/>
 <polygon points="0,0 675,0 675,525 0,525" fill="#ffffff"/>
 <g>
  <polygon points="0,525 675,525 675,0 0,0" fill="#ffffff" shape-rendering="crispEdges"/>
  <clipPath id="cp00675525">
   <polygon points="0,525 675,525 675,0 0,0"/>
  </clipPath>
  <g clip-path="url(#cp00675525)">
   <g font-family="FreeSans" font-style="normal" transform="translate(229.266,42.5413) rotate(-0,108.5,0)" xml:space="preserve" font-size="12" font-weight="bold">
    <text fill="rgb(0,0,0)" y="-3" x="0 8 11 14 21 28 31 38 45 52 59 62 66 69 72 75 78 85 92 ">Si valence filling </text>
    <text fill="rgb(0,0,0)" y="-3" x="95 ">→</text>
    <text fill="rgb(0,0,0)" y="-3" x="107 110 117 "> sp</text>
    <text fill="rgb(0,0,0)" y="-8" x="124 " font-size="8.4">3</text>
    <text fill="rgb(0,0,0)" y="-3" x="129 132 136 144 151 154 161 168 173 176 183 186 193 196 199 206 213 "> (Beiser 8.5, L2)</text>
   </g>
   <g font-family="FreeSans" font-style="normal" transform="translate(189.149,81.5798) rotate(-0,-0,-5.5)" xml:space="preserve" font-size="10" font-weight="bold">
    <text fill="rgb(0,0,0)" y="-2" x="0 6 10 16 22 28 34 37 40 48 54 57 60 66 72 78 84 87 93 99 105 ">ground [Ne] 3s^2 3p^2</text>
   </g>
   <g font-family="FreeSans" font-style="normal" transform="translate(171.744,113.366) rotate(-0,12,-4.5)" xml:space="preserve" font-size="10" font-weight="bold">
    <text fill="rgb(0,0,0)" y="-0" x="0 6 ">3s</text>
   </g>
   <polygon points="229.681,123.157 229.681,94.5743 189.149,94.5743 189.149,123.157" fill="#ffffff" shape-rendering="crispEdges"/>
   <polyline stroke-width="1.3" stroke-linejoin="miter" points="229.681,94.5743 189.149,94.5743 189.149,123.157 229.681,123.157 229.681,94.5743" fill="none" stroke-linecap="butt" stroke="#262626"/>
   <g font-family="FreeSans" font-style="normal" transform="translate(197.849,114.937) rotate(-0,4,-5.5)" xml:space="preserve" font-size="14" font-weight="normal">
    <text fill="rgb(25,63,140)" y="-0" x="0 ">↑</text>
   </g>
   <g font-family="FreeSans" font-style="normal" transform="translate(212.981,115.437) rotate(-0,4,-6)" xml:space="preserve" font-size="14" font-weight="normal">
    <text fill="rgb(178,38,30)" y="-1" x="0 ">↓</text>
   </g>
   <g font-family="FreeSans" font-style="normal" transform="translate(171.744,156.399) rotate(-0,12,-5.5)" xml:space="preserve" font-size="10" font-weight="bold">
    <text fill="rgb(0,0,0)" y="-2" x="0 6 ">3p</text>
   </g>
   <polygon points="229.681,165.19 229.681,136.607 189.149,136.607 189.149,165.19" fill="#ffffff" shape-rendering="crispEdges"/>
   <polyline stroke-width="1.3" stroke-linejoin="miter" points="229.681,136.607 189.149,136.607 189.149,165.19 229.681,165.19 229.681,136.607" fill="none" stroke-linecap="butt" stroke="#262626"/>
   <g font-family="FreeSans" font-style="normal" transform="translate(204.915,157.97) rotate(-0,4.5,-6.5)" xml:space="preserve" font-size="16" font-weight="normal">
    <text fill="rgb(25,63,140)" y="-0" x="0 ">↑</text>
   </g>
   <polygon points="278.859,165.19 278.859,136.607 238.327,136.607 238.327,165.19" fill="#ffffff" shape-rendering="crispEdges"/>
   <polyline stroke-width="1.3" stroke-linejoin="miter" points="278.859,136.607 238.327,136.607 238.327,165.19 278.859,165.19 278.859,136.607" fill="none" stroke-linecap="butt" stroke="#262626"/>
   <g font-family="FreeSans" font-style="normal" transform="translate(254.093,157.97) rotate(-0,4.5,-6.5)" xml:space="preserve" font-size="16" font-weight="normal">
    <text fill="rgb(25,63,140)" y="-0" x="0 ">↑</text>
   </g>
   <polygon points="328.038,165.19 328.038,136.607 287.506,136.607 287.506,165.19" fill="#ffffff" shape-rendering="crispEdges"/>
   <polyline stroke-width="1.3" stroke-linejoin="miter" points="328.038,136.607 287.506,136.607 287.506,165.19 328.038,165.19 328.038,136.607" fill="none" stroke-linecap="butt" stroke="#262626"/>
   <g font-family="FreeSans" font-style="normal" transform="translate(189.149,209.36) rotate(-0,-0,-5.5)" xml:space="preserve" font-size="10" font-weight="bold">
    <text fill="rgb(0,0,0)" y="-2" x="0 6 10 16 25 31 34 40 46 49 55 61 67 73 76 82 88 94 ">promoted 3s^1 3p^3</text>
   </g>
   <g font-family="FreeSans" font-style="normal" transform="translate(171.744,241.146) rotate(-0,12,-4.5)" xml:space="preserve" font-size="10" font-weight="bold">
    <text fill="rgb(0,0,0)" y="-0" x="0 6 ">3s</text>
   </g>
   <polygon points="229.681,250.937 229.681,222.355 189.149,222.355 189.149,250.937" fill="#ffffff" shape-rendering="crispEdges"/>
   <polyline stroke-width="1.3" stroke-linejoin="miter" points="229.681,222.355 189.149,222.355 189.149,250.937 229.681,250.937 229.681,222.355" fill="none" stroke-linecap="butt" stroke="#262626"/>
   <g font-family="FreeSans" font-style="normal" transform="translate(204.915,243.718) rotate(-0,4.5,-6.5)" xml:space="preserve" font-size="16" font-weight="normal">
    <text fill="rgb(25,63,140)" y="-0" x="0 ">↑</text>
   </g>
   <g font-family="FreeSans" font-style="normal" transform="translate(171.744,284.179) rotate(-0,12,-5.5)" xml:space="preserve" font-size="10" font-weight="bold">
    <text fill="rgb(0,0,0)" y="-2" x="0 6 ">3p</text>
   </g>
   <polygon points="229.681,292.97 229.681,264.388 189.149,264.388 189.149,292.97" fill="#ffffff" shape-rendering="crispEdges"/>
   <polyline stroke-width="1.3" stroke-linejoin="miter" points="229.681,264.388 189.149,264.388 189.149,292.97 229.681,292.97 229.681,264.388" fill="none" stroke-linecap="butt" stroke="#262626"/>
   <g font-family="FreeSans" font-style="normal" transform="translate(204.915,285.751) rotate(-0,4.5,-6.5)" xml:space="preserve" font-size="16" font-weight="normal">
    <text fill="rgb(25,63,140)" y="-0" x="0 ">↑</text>
   </g>
   <polygon points="278.859,292.97 278.859,264.388 238.327,264.388 238.327,292.97" fill="#ffffff" shape-rendering="crispEdges"/>
   <polyline stroke-width="1.3" stroke-linejoin="miter" points="278.859,264.388 238.327,264.388 238.327,292.97 278.859,292.97 278.859,264.388" fill="none" stroke-linecap="butt" stroke="#262626"/>
   <g font-family="FreeSans" font-style="normal" transform="translate(254.093,285.751) rotate(-0,4.5,-6.5)" xml:space="preserve" font-size="16" font-weight="normal">
    <text fill="rgb(25,63,140)" y="-0" x="0 ">↑</text>
   </g>
   <polygon points="328.038,292.97 328.038,264.388 287.506,264.388 287.506,292.97" fill="#ffffff" shape-rendering="crispEdges"/>
   <polyline stroke-width="1.3" stroke-linejoin="miter" points="328.038,264.388 287.506,264.388 287.506,292.97 328.038,292.97 328.038,264.388" fill="none" stroke-linecap="butt" stroke="#262626"/>
   <g font-family="FreeSans" font-style="normal" transform="translate(303.272,285.751) rotate(-0,4.5,-6.5)" xml:space="preserve" font-size="16" font-weight="normal">
    <text fill="rgb(25,63,140)" y="-0" x="0 ">↑</text>
   </g>
   <g font-family="FreeSans" font-style="normal" transform="translate(189.149,337.141) rotate(-0,-0,-5.5)" xml:space="preserve" font-size="10" font-weight="bold">
    <text fill="rgb(0,0,0)" y="-2" x="0 3 9 15 19 22 28 34 40 43 48 54 57 63 69 72 75 81 87 93 99 102 105 111 114 120 129 135 141 147 150 156 162 168 171 177 ">four equivalent sp^3 (diamond cubic)</text>
   </g>
   <g font-family="FreeSans" font-style="normal" transform="translate(165.744,369.926) rotate(-0,18,-5.5)" xml:space="preserve" font-size="10" font-weight="bold">
    <text fill="rgb(0,0,0)" y="-2" x="0 6 12 ">sp3</text>
   </g>
   <polygon points="229.681,378.718 229.681,350.135 189.149,350.135 189.149,378.718" fill="#ffffff" shape-rendering="crispEdges"/>
   <polyline stroke-width="1.3" stroke-linejoin="miter" points="229.681,350.135 189.149,350.135 189.149,378.718 229.681,378.718 229.681,350.135" fill="none" stroke-linecap="butt" stroke="#262626"/>
   <g font-family="FreeSans" font-style="normal" transform="translate(204.915,371.498) rotate(-0,4.5,-6.5)" xml:space="preserve" font-size="16" font-weight="normal">
    <text fill="rgb(25,63,140)" y="-0" x="0 ">↑</text>
   </g>
   <polygon points="278.859,378.718 278.859,350.135 238.327,350.135 238.327,378.718" fill="#ffffff" shape-rendering="crispEdges"/>
   <polyline stroke-width="1.3" stroke-linejoin="miter" points="278.859,350.135 238.327,350.135 238.327,378.718 278.859,378.718 278.859,350.135" fill="none" stroke-linecap="butt" stroke="#262626"/>
   <g font-family="FreeSans" font-style="normal" transform="translate(254.093,371.498) rotate(-0,4.5,-6.5)" xml:space="preserve" font-size="16" font-weight="normal">
    <text fill="rgb(25,63,140)" y="-0" x="0 ">↑</text>
   </g>
   <polygon points="328.038,378.718 328.038,350.135 287.506,350.135 287.506,378.718" fill="#ffffff" shape-rendering="crispEdges"/>
   <polyline stroke-width="1.3" stroke-linejoin="miter" points="328.038,350.135 287.506,350.135 287.506,378.718 328.038,378.718 328.038,350.135" fill="none" stroke-linecap="butt" stroke="#262626"/>
   <g font-family="FreeSans" font-style="normal" transform="translate(303.272,371.498) rotate(-0,4.5,-6.5)" xml:space="preserve" font-size="16" font-weight="normal">
    <text fill="rgb(25,63,140)" y="-0" x="0 ">↑</text>
   </g>
   <polygon points="377.217,378.718 377.217,350.135 336.685,350.135 336.685,378.718" fill="#ffffff" shape-rendering="crispEdges"/>
   <polyline stroke-width="1.3" stroke-linejoin="miter" points="377.217,350.135 336.685,350.135 336.685,378.718 377.217,378.718 377.217,350.135" fill="none" stroke-linecap="butt" stroke="#262626"/>
   <g font-family="FreeSans" font-style="normal" transform="translate(352.451,371.498) rotate(-0,4.5,-6.5)" xml:space="preserve" font-size="16" font-weight="normal">
    <text fill="rgb(25,63,140)" y="-0" x="0 ">↑</text>
   </g>
   <g font-family="FreeSans" font-style="normal" transform="translate(189.149,485.696) rotate(-0,-0,-33)" xml:space="preserve" font-size="8" font-weight="normal">
    <text fill="rgb(0,0,0)" y="-26" x="0 6 10 14 18 20 22 24 30 34 36 40 44 48 52 54 57 61 65 67 71 75 77 81 83 87 91 93 96 100 104 108 110 112 116 118 120 124 128 130 134 136 140 147 ">Hund: two unpaired 3p electrons in the atom.</text>
    <text fill="rgb(0,0,0)" y="-14" x="0 2 6 8 10 14 18 20 24 27 31 35 37 41 43 45 47 51 55 57 59 63 67 70 72 76 80 84 86 90 94 98 101 103 107 111 113 117 121 125 129 131 135 139 141 145 147 151 155 159 161 165 167 171 175 177 180 184 188 190 194 198 202 204 206 210 213 ">In the crystal the four sp3 hybrids each hold one electron and form</text>
    <text font-family="*, FreeSans" fill="rgb(0,0,0)" y="-2" x="0 2 6 10 13 15 19 23 27 29 33 37 39 43 47 49 51 56 58 61 66 68 70 74 76 80 87 91 93 97 101 105 109 113 115 118 124 129 134 139 143 147 151 155 157 159 162 164 166 169 ">four equivalent Si-Si sigma bonds (GEST3015 I-II).</text>
   </g>
  </g>
 </g>
</svg>
